<svg width="181" height="60" viewBox="0 0 181 60" fill="none" xmlns="http://www.w3.org/2000/svg">
<path d="M72.9039 29.3639C71.1186 29.3639 69.6106 28.9652 68.3799 28.1679C67.1492 27.3706 66.2739 26.2699 65.7539 24.8659L68.8219 23.0719C69.5326 24.9266 70.9279 25.8539 73.0079 25.8539C73.9786 25.8539 74.7066 25.6806 75.1919 25.3339C75.6772 24.9872 75.9199 24.5192 75.9199 23.9299C75.9199 23.2886 75.6339 22.7946 75.0619 22.4479C74.4899 22.0839 73.4672 21.6939 71.9939 21.2779C70.3992 20.7926 69.1426 20.2292 68.2239 19.5879C67.0799 18.7386 66.5079 17.4906 66.5079 15.8439C66.5079 14.1799 67.0886 12.8712 68.2499 11.9179C69.4112 10.9299 70.8239 10.4359 72.4879 10.4359C73.9439 10.4359 75.2352 10.7912 76.3619 11.5019C77.4886 12.2126 78.3639 13.2179 78.9879 14.5179L75.9719 16.2599C75.2439 14.6999 74.0826 13.9199 72.4879 13.9199C71.7599 13.9199 71.1792 14.0932 70.7459 14.4399C70.3126 14.7692 70.0959 15.2026 70.0959 15.7399C70.0959 16.3119 70.3299 16.7799 70.7979 17.1439C71.3179 17.5079 72.2366 17.8892 73.5539 18.2879L74.8019 18.7039C75.0272 18.7732 75.4172 18.9206 75.9719 19.1459C76.4919 19.3366 76.8732 19.5186 77.1159 19.6919C77.9652 20.2119 78.5372 20.7492 78.8319 21.3039C79.2826 22.0319 79.5079 22.8899 79.5079 23.8779C79.5079 25.5592 78.8926 26.8939 77.6619 27.8819C76.4312 28.8699 74.8452 29.3639 72.9039 29.3639Z" fill="#000B30"/>
<path d="M90.2721 23.0199V15.9999H93.6261V28.9999H90.2721V27.5439C89.4748 28.7572 88.1834 29.3639 86.3981 29.3639C84.9768 29.3639 83.7981 28.8872 82.8621 27.9339C81.9434 26.9632 81.4841 25.6459 81.4841 23.9819V15.9999H84.8381V23.5659C84.8381 24.4152 85.0634 25.0739 85.5141 25.5419C85.9821 26.0099 86.6148 26.2439 87.4121 26.2439C88.2961 26.2439 88.9894 25.9752 89.4921 25.4379C90.0121 24.8832 90.2721 24.0772 90.2721 23.0199Z" fill="#000B30"/>
<path d="M104.264 15.6359C106.015 15.6359 107.505 16.3032 108.736 17.6379C109.984 18.9726 110.608 20.5932 110.608 22.4999C110.608 24.4412 109.984 26.0706 108.736 27.3879C107.523 28.7052 106.032 29.3639 104.264 29.3639C102.444 29.3639 101.04 28.7312 100.052 27.4659V28.9999H96.698V10.7999H100.052V17.5339C101.04 16.2686 102.444 15.6359 104.264 15.6359ZM101.066 25.1519C101.742 25.8279 102.6 26.1659 103.64 26.1659C104.68 26.1659 105.538 25.8279 106.214 25.1519C106.907 24.4586 107.254 23.5746 107.254 22.4999C107.254 21.4252 106.907 20.5499 106.214 19.8739C105.538 19.1806 104.68 18.8339 103.64 18.8339C102.6 18.8339 101.742 19.1806 101.066 19.8739C100.39 20.5499 100.052 21.4252 100.052 22.4999C100.052 23.5746 100.39 24.4586 101.066 25.1519Z" fill="#000B30"/>
<path d="M115.788 19.6919C115.788 20.2466 116.577 20.7232 118.154 21.1219C118.709 21.2432 119.211 21.3906 119.662 21.5639C120.113 21.7199 120.563 21.9539 121.014 22.2659C121.482 22.5606 121.846 22.9592 122.106 23.4619C122.366 23.9646 122.496 24.5452 122.496 25.2039C122.496 26.5386 121.993 27.5699 120.988 28.2979C119.983 29.0086 118.743 29.3639 117.27 29.3639C114.601 29.3639 112.781 28.3326 111.81 26.2699L114.722 24.6319C115.121 25.7586 115.97 26.3219 117.27 26.3219C118.466 26.3219 119.064 25.9492 119.064 25.2039C119.064 24.6492 118.275 24.1726 116.698 23.7739C116.109 23.6179 115.606 23.4619 115.19 23.3059C114.774 23.1499 114.323 22.9246 113.838 22.6299C113.353 22.3179 112.98 21.9279 112.72 21.4599C112.477 20.9746 112.356 20.4112 112.356 19.7699C112.356 18.4872 112.824 17.4819 113.76 16.7539C114.713 16.0086 115.892 15.6359 117.296 15.6359C118.353 15.6359 119.315 15.8786 120.182 16.3639C121.049 16.8319 121.733 17.5079 122.236 18.3919L119.376 19.9519C118.96 19.0679 118.267 18.6259 117.296 18.6259C116.863 18.6259 116.499 18.7299 116.204 18.9379C115.927 19.1286 115.788 19.3799 115.788 19.6919Z" fill="#000B30"/>
<path d="M126.317 14.4399C125.762 14.4399 125.277 14.2406 124.861 13.8419C124.462 13.4259 124.263 12.9406 124.263 12.3859C124.263 11.8312 124.462 11.3459 124.861 10.9299C125.277 10.5139 125.762 10.3059 126.317 10.3059C126.889 10.3059 127.374 10.5139 127.773 10.9299C128.189 11.3459 128.397 11.8312 128.397 12.3859C128.397 12.9406 128.189 13.4259 127.773 13.8419C127.374 14.2406 126.889 14.4399 126.317 14.4399ZM128.007 28.9999H124.653V15.9999H128.007V28.9999Z" fill="#000B30"/>
<path d="M140.931 17.5339V10.7999H144.285V28.9999H140.931V27.4659C139.943 28.7312 138.539 29.3639 136.719 29.3639C134.968 29.3639 133.469 28.7052 132.221 27.3879C130.99 26.0532 130.375 24.4239 130.375 22.4999C130.375 20.5932 130.99 18.9726 132.221 17.6379C133.469 16.3032 134.968 15.6359 136.719 15.6359C138.539 15.6359 139.943 16.2686 140.931 17.5339ZM134.743 25.1519C135.454 25.8279 136.32 26.1659 137.343 26.1659C138.383 26.1659 139.241 25.8279 139.917 25.1519C140.593 24.4586 140.931 23.5746 140.931 22.4999C140.931 21.4252 140.593 20.5499 139.917 19.8739C139.241 19.1806 138.383 18.8339 137.343 18.8339C136.303 18.8339 135.436 19.1806 134.743 19.8739C134.067 20.5499 133.729 21.4252 133.729 22.4999C133.729 23.5746 134.067 24.4586 134.743 25.1519Z" fill="#000B30"/>
<path d="M149.016 14.4399C148.462 14.4399 147.976 14.2406 147.56 13.8419C147.162 13.4259 146.962 12.9406 146.962 12.3859C146.962 11.8312 147.162 11.3459 147.56 10.9299C147.976 10.5139 148.462 10.3059 149.016 10.3059C149.588 10.3059 150.074 10.5139 150.472 10.9299C150.888 11.3459 151.096 11.8312 151.096 12.3859C151.096 12.9406 150.888 13.4259 150.472 13.8419C150.074 14.2406 149.588 14.4399 149.016 14.4399ZM150.706 28.9999H147.352V15.9999H150.706V28.9999Z" fill="#000B30"/>
<path d="M159.366 24.7359L162.252 15.9999H165.84L161.108 28.9999C160.432 30.8719 159.531 32.2239 158.404 33.0559C157.295 33.9052 155.908 34.2866 154.244 34.1999V31.0799C155.128 31.0972 155.839 30.9066 156.376 30.5079C156.913 30.1092 157.338 29.4679 157.65 28.5839L152.32 15.9999H155.986L159.366 24.7359Z" fill="#000B30"/>
<path d="M176.808 17.5339V15.9999H180.162V28.9999H176.808V27.4659C175.803 28.7312 174.39 29.3639 172.57 29.3639C170.837 29.3639 169.346 28.7052 168.098 27.3879C166.868 26.0532 166.252 24.4239 166.252 22.4999C166.252 20.5932 166.868 18.9726 168.098 17.6379C169.346 16.3032 170.837 15.6359 172.57 15.6359C174.39 15.6359 175.803 16.2686 176.808 17.5339ZM170.62 25.1519C171.296 25.8279 172.154 26.1659 173.194 26.1659C174.234 26.1659 175.092 25.8279 175.768 25.1519C176.462 24.4586 176.808 23.5746 176.808 22.4999C176.808 21.4252 176.462 20.5499 175.768 19.8739C175.092 19.1806 174.234 18.8339 173.194 18.8339C172.154 18.8339 171.296 19.1806 170.62 19.8739C169.944 20.5499 169.606 21.4252 169.606 22.4999C169.606 23.5746 169.944 24.4586 170.62 25.1519Z" fill="#000B30"/>
<path d="M66.1999 36.7999H70.2639C71.2879 36.7999 72.1466 37.1466 72.8399 37.8399C73.5332 38.5332 73.8799 39.3866 73.8799 40.3999C73.8799 41.4132 73.5332 42.2666 72.8399 42.9599C72.1466 43.6532 71.2879 43.9999 70.2639 43.9999H67.6879V47.9999H66.1999V36.7999ZM67.6879 42.6079H70.2639C70.8932 42.6079 71.4052 42.3999 71.7999 41.9839C72.2052 41.5466 72.4079 41.0186 72.4079 40.3999C72.4079 39.7599 72.2052 39.2319 71.7999 38.8159C71.3946 38.3999 70.8826 38.1919 70.2639 38.1919H67.6879V42.6079Z" fill="#000B30"/>
<path d="M76.8854 47.9999H75.4934V36.3199H76.8854V47.9999Z" fill="#000B30"/>
<path d="M85.633 41.3759V39.9999H87.025V47.9999H85.633V46.6239C84.9504 47.6799 83.9424 48.2079 82.609 48.2079C81.4784 48.2079 80.5237 47.8026 79.745 46.9919C78.9557 46.1706 78.561 45.1732 78.561 43.9999C78.561 42.8372 78.9557 41.8452 79.745 41.0239C80.5344 40.2026 81.489 39.7919 82.609 39.7919C83.9424 39.7919 84.9504 40.3199 85.633 41.3759ZM82.785 46.8639C83.5957 46.8639 84.273 46.5919 84.817 46.0479C85.361 45.4826 85.633 44.7999 85.633 43.9999C85.633 43.1892 85.361 42.5119 84.817 41.9679C84.273 41.4132 83.5957 41.1359 82.785 41.1359C81.985 41.1359 81.313 41.4132 80.769 41.9679C80.225 42.5119 79.953 43.1892 79.953 43.9999C79.953 44.7999 80.225 45.4826 80.769 46.0479C81.313 46.5919 81.985 46.8639 82.785 46.8639Z" fill="#000B30"/>
<path d="M93.486 39.9999V41.3439H91.358V45.6799C91.358 46.0746 91.4327 46.3572 91.582 46.5279C91.742 46.6879 91.982 46.7732 92.302 46.7839C92.622 46.7839 93.0167 46.7732 93.486 46.7519V47.9999C92.2594 48.1599 91.3634 48.0586 90.798 47.6959C90.2434 47.3332 89.966 46.6612 89.966 45.6799V41.3439H88.382V39.9999H89.966V38.1759L91.358 37.7599V39.9999H93.486Z" fill="#000B30"/>
<path d="M98.8398 36.5919V37.9359C97.4318 37.8186 96.7278 38.4266 96.7278 39.7599V39.9999H98.8398V41.3439H96.7278V47.9999H95.3358V41.3439H94.0558V39.9999H95.3358V39.7599C95.3358 38.6719 95.6398 37.8559 96.2478 37.3119C96.8558 36.7572 97.7198 36.5172 98.8398 36.5919Z" fill="#000B30"/>
<path d="M106.214 46.9919C105.403 47.8026 104.406 48.2079 103.222 48.2079C102.038 48.2079 101.041 47.8026 100.23 46.9919C99.4195 46.1812 99.0142 45.1839 99.0142 43.9999C99.0142 42.8159 99.4195 41.8186 100.23 41.0079C101.041 40.1972 102.038 39.7919 103.222 39.7919C104.406 39.7919 105.403 40.1972 106.214 41.0079C107.035 41.8292 107.446 42.8266 107.446 43.9999C107.446 45.1732 107.035 46.1706 106.214 46.9919ZM103.222 46.8479C104.022 46.8479 104.694 46.5759 105.238 46.0319C105.782 45.4879 106.054 44.8106 106.054 43.9999C106.054 43.1892 105.782 42.5119 105.238 41.9679C104.694 41.4239 104.022 41.1519 103.222 41.1519C102.433 41.1519 101.766 41.4239 101.222 41.9679C100.678 42.5119 100.406 43.1892 100.406 43.9999C100.406 44.8106 100.678 45.4879 101.222 46.0319C101.766 46.5759 102.433 46.8479 103.222 46.8479Z" fill="#000B30"/>
<path d="M110.479 39.9999V41.3439C110.938 40.3519 111.77 39.8559 112.975 39.8559V41.3119C112.292 41.2799 111.706 41.4612 111.215 41.8559C110.724 42.2506 110.479 42.8852 110.479 43.7599V47.9999H109.087V39.9999H110.479Z" fill="#000B30"/>
<path d="M122.977 39.7919C123.884 39.7919 124.609 40.0852 125.153 40.6719C125.708 41.2586 125.985 42.0426 125.985 43.0239V47.9999H124.593V43.0719C124.593 42.4639 124.433 41.9892 124.113 41.6479C123.804 41.2959 123.377 41.1199 122.833 41.1199C122.214 41.1199 121.729 41.3279 121.377 41.7439C121.036 42.1492 120.865 42.7519 120.865 43.5519V47.9999H119.473V43.0719C119.473 42.4639 119.318 41.9892 119.009 41.6479C118.71 41.2959 118.3 41.1199 117.777 41.1199C117.169 41.1199 116.673 41.3332 116.289 41.7599C115.916 42.1759 115.729 42.7732 115.729 43.5519V47.9999H114.337V39.9999H115.729V41.0719C116.273 40.2186 117.068 39.7919 118.113 39.7919C119.19 39.7919 119.974 40.2452 120.465 41.1519C121.02 40.2452 121.857 39.7919 122.977 39.7919Z" fill="#000B30"/>
<path d="M134.539 41.3759V39.9999H135.931V47.9999H134.539V46.6239C133.857 47.6799 132.849 48.2079 131.515 48.2079C130.385 48.2079 129.43 47.8026 128.651 46.9919C127.862 46.1706 127.467 45.1732 127.467 43.9999C127.467 42.8372 127.862 41.8452 128.651 41.0239C129.441 40.2026 130.395 39.7919 131.515 39.7919C132.849 39.7919 133.857 40.3199 134.539 41.3759ZM131.691 46.8639C132.502 46.8639 133.179 46.5919 133.723 46.0479C134.267 45.4826 134.539 44.7999 134.539 43.9999C134.539 43.1892 134.267 42.5119 133.723 41.9679C133.179 41.4132 132.502 41.1359 131.691 41.1359C130.891 41.1359 130.219 41.4132 129.675 41.9679C129.131 42.5119 128.859 43.1892 128.859 43.9999C128.859 44.7999 129.131 45.4826 129.675 46.0479C130.219 46.5919 130.891 46.8639 131.691 46.8639Z" fill="#000B30"/>
<path d="M139.225 42.1599C139.225 42.6719 139.753 43.0719 140.809 43.3599C141.203 43.4452 141.534 43.5359 141.801 43.6319C142.078 43.7172 142.377 43.8506 142.697 44.0319C143.027 44.2132 143.278 44.4532 143.449 44.7519C143.619 45.0506 143.705 45.4026 143.705 45.8079C143.705 46.5332 143.422 47.1146 142.857 47.5519C142.291 47.9892 141.577 48.2079 140.713 48.2079C139.945 48.2079 139.278 48.0426 138.713 47.7119C138.158 47.3706 137.763 46.9119 137.529 46.3359L138.729 45.6479C138.857 46.0319 139.097 46.3359 139.449 46.5599C139.801 46.7839 140.222 46.8959 140.713 46.8959C141.193 46.8959 141.577 46.8052 141.865 46.6239C142.153 46.4426 142.297 46.1706 142.297 45.8079C142.297 45.2639 141.769 44.8692 140.713 44.6239C140.361 44.5279 140.094 44.4532 139.913 44.3999C139.731 44.3466 139.481 44.2506 139.161 44.1119C138.851 43.9732 138.617 43.8292 138.457 43.6799C138.297 43.5199 138.147 43.3119 138.009 43.0559C137.881 42.7892 137.817 42.4959 137.817 42.1759C137.817 41.4826 138.083 40.9119 138.617 40.4639C139.161 40.0159 139.838 39.7919 140.649 39.7919C141.299 39.7919 141.875 39.9412 142.377 40.2399C142.889 40.5279 143.273 40.9332 143.529 41.4559L142.361 42.1119C142.073 41.4292 141.502 41.0879 140.649 41.0879C140.243 41.0879 139.902 41.1839 139.625 41.3759C139.358 41.5679 139.225 41.8292 139.225 42.1599Z" fill="#000B30"/>
<path d="M145.979 38.5439C145.712 38.5439 145.488 38.4532 145.307 38.2719C145.125 38.0906 145.035 37.8719 145.035 37.6159C145.035 37.3599 145.125 37.1412 145.307 36.9599C145.488 36.7679 145.712 36.6719 145.979 36.6719C146.235 36.6719 146.453 36.7679 146.635 36.9599C146.816 37.1412 146.907 37.3599 146.907 37.6159C146.907 37.8719 146.816 38.0906 146.635 38.2719C146.453 38.4532 146.235 38.5439 145.979 38.5439ZM146.667 47.9999H145.275V39.9999H146.667V47.9999Z" fill="#000B30"/>
<circle cx="24.9662" cy="8.96625" r="8.96625" fill="#00AD50"/>
<path d="M36.4676 30.7552C37.0592 26.6577 37.2587 20.7341 37.2587 20.7341C37.2587 20.7341 28.2925 30.4915 28.5562 41.3037C28.82 52.116 29.6111 59.5 29.6111 59.5C29.6111 59.5 33.6682 53.6774 37.7862 48.424C42.6286 42.2464 46.225 38.9303 50.9718 32.8649C55.6288 26.9143 58.6195 17.8333 57.301 12.2953C56.1183 7.32825 52.541 2.8693 47.8073 0.95563C43.7971 -0.665532 37.5225 0.955606 37.5225 0.955606C37.5225 0.955606 41.2175 3.77514 43.0604 6.49361C46.2152 11.147 46.3562 15.4146 45.6976 20.9978C44.6918 29.5231 34.6216 39.9852 34.6216 39.9852C34.6216 39.9852 35.974 34.174 36.4676 30.7552Z" fill="#0000FF"/>
<path d="M8.77783 26.7996C6.1407 20.2068 11.1512 12.2954 11.1512 12.2954C11.1512 12.2954 8.13117 12.1642 5.08585 14.9326C2.18495 17.5697 -1.77073 22.5802 0.866403 30.2279C3.50354 37.8756 12.4814 43.1456 19.0628 48.6879C24.0733 52.9073 29.5 59.5 29.5 59.5C29.5 59.5 27.8466 46.712 24.8644 39.4579C22.1444 32.8415 15.6345 23.6351 15.6345 23.6351L16.1618 37.0845C16.1618 37.0845 11.415 33.3925 8.77783 26.7996Z" fill="#0000DD"/>
</svg>
